{
    "asset" : {
        "generator" : "Khronos glTF Blender I/O v1.3.48",
        "version" : "2.0"
    },
    "scene" : 0,
    "scenes" : [
        {
            "name" : "Scene",
            "nodes" : [
                0
            ]
        }
    ],
    "nodes" : [
        {
            "mesh" : 0,
            "name" : "Mug Front-View",
            "scale" : [
                0.09300986677408218,
                0.0930098220705986,
                0.09300986677408218
            ]
        }
    ],
    "materials" : [
        {
            "doubleSided" : true,
            "emissiveFactor" : [
                0,
                0,
                0
            ],
            "name" : "Ceramic",
            "pbrMetallicRoughness" : {
                "baseColorTexture" : {
                    "index" : 0,
                    "texCoord" : 0
                },
                "metallicFactor" : 0,
                "roughnessFactor" : 1
            }
        }
    ],
    "meshes" : [
        {
            "name" : "Cylinder",
            "primitives" : [
                {
                    "attributes" : {
                        "POSITION" : 0,
                        "NORMAL" : 1,
                        "TEXCOORD_0" : 2
                    },
                    "indices" : 3,
                    "material" : 0
                }
            ]
        }
    ],
    "textures" : [
        {
            "source" : 0
        }
    ],
    "images" : [
        {
            "mimeType" : "image/jpeg",
            "name" : "motif-mug",
            "uri" : "motif-mug.jpg"
        }
    ],
    "accessors" : [
        {
            "bufferView" : 0,
            "componentType" : 5126,
            "count" : 5693,
            "max" : [
                5.882304668426514,
                5.320290565490723,
                3.999873399734497
            ],
            "min" : [
                -6.144716262817383,
                -4.175312042236328,
                -3.99635910987854
            ],
            "type" : "VEC3"
        },
        {
            "bufferView" : 1,
            "componentType" : 5126,
            "count" : 5693,
            "type" : "VEC3"
        },
        {
            "bufferView" : 2,
            "componentType" : 5126,
            "count" : 5693,
            "type" : "VEC2"
        },
        {
            "bufferView" : 3,
            "componentType" : 5123,
            "count" : 28992,
            "type" : "SCALAR"
        }
    ],
    "bufferViews" : [
        {
            "buffer" : 0,
            "byteLength" : 68316,
            "byteOffset" : 0
        },
        {
            "buffer" : 0,
            "byteLength" : 68316,
            "byteOffset" : 68316
        },
        {
            "buffer" : 0,
            "byteLength" : 45544,
            "byteOffset" : 136632
        },
        {
            "buffer" : 0,
            "byteLength" : 57984,
            "byteOffset" : 182176
        }
    ],
    "buffers" : [
        {
            "byteLength" : 240160,
            "uri" : "mug.bin"
        }
    ]
}
