<?xml version="1.0" encoding="utf-8"?>
<!-- Generator: Adobe Illustrator 25.1.0, SVG Export Plug-In . SVG Version: 6.00 Build 0)  -->
<svg version="1.1" id="Layer_1" xmlns="http://www.w3.org/2000/svg" xmlns:xlink="http://www.w3.org/1999/xlink" x="0px" y="0px"
	 viewBox="0 0 300 300" enable-background="new 0 0 300 300" xml:space="preserve">
<desc>Created with Sketch.</desc>
<g>
	<path fill="#4285F4" d="M246.5,75.6c1.2,0.6,2.2,1.5,2.9,2.8c0,0.1,0.1,0.1,0.1,0.2c0.1,0.1,0.1,0.3,0.2,0.4
		c0.3,0.8,0.4,1.6,0.4,2.3V125c0,3.5-2.8,6.2-6.2,6.2s-6.2-2.8-6.2-6.2V91.4L209,105.6c-3.1,1.5-6.8,0.3-8.4-2.8
		c-1.5-3.1-0.3-6.8,2.8-8.4l26.3-13.2l-26.3-13.2c-3.1-1.5-4.3-5.3-2.8-8.4c1.5-3.1,5.3-4.3,8.4-2.8L246.5,75.6z M250,206.1
		c0,0.9-0.2,1.9-0.6,2.7c-0.3,0.7-0.7,1.3-1.2,1.8c-0.5,0.5-1.1,0.9-1.7,1.2L209,230.6c-3.1,1.5-6.8,0.3-8.4-2.8
		c-1.5-3.1-0.3-6.8,2.8-8.4l26.3-13.2l-26.3-13.2c-3.1-1.5-4.3-5.3-2.8-8.4c1.5-3.1,5.3-4.3,8.4-2.8l28.5,14.2v-33.6
		c0-3.5,2.8-6.2,6.2-6.2s6.2,2.8,6.2,6.2V206.1z M57.7,206.2L84,219.4c3.1,1.5,4.3,5.3,2.8,8.4c-1.5,3.1-5.3,4.3-8.4,2.8L41,211.9
		c-1.2-0.6-2.2-1.5-2.9-2.8c0-0.1-0.1-0.1-0.1-0.2c-0.1-0.1-0.1-0.3-0.2-0.4c-0.3-0.8-0.4-1.6-0.4-2.3v-43.6c0-3.5,2.8-6.2,6.2-6.2
		s6.2,2.8,6.2,6.2v33.6l28.5-14.2c3.1-1.5,6.8-0.3,8.4,2.8c1.5,3.1,0.3,6.8-2.8,8.4L57.7,206.2z M50,91.4V125c0,3.5-2.8,6.2-6.2,6.2
		s-6.2-2.8-6.2-6.2V81.4c0-0.9,0.2-1.9,0.6-2.7c0.3-0.7,0.7-1.3,1.2-1.8c0.5-0.5,1.1-0.9,1.7-1.2l37.4-18.7c3.1-1.5,6.8-0.3,8.4,2.8
		c1.5,3.1,0.3,6.8-2.8,8.4L57.7,81.2L84,94.4c3.1,1.5,4.3,5.3,2.8,8.4c-1.5,3.1-5.3,4.3-8.4,2.8L50,91.4z M140.8,25.7
		c0.9-0.5,1.9-0.7,2.9-0.7s2,0.3,2.9,0.7L184,44.4c3.1,1.5,4.3,5.3,2.8,8.4c-1.5,3.1-5.3,4.3-8.4,2.8L150,41.4V75
		c0,3.5-2.8,6.2-6.2,6.2s-6.2-2.8-6.2-6.2V41.4L109,55.6c-3.1,1.5-6.8,0.3-8.4-2.8c-1.5-3.1-0.3-6.8,2.8-8.4L140.8,25.7z
		 M146.7,261.8c-0.9,0.5-1.9,0.7-2.9,0.7s-2-0.3-2.9-0.7l-37.4-18.7c-3.1-1.5-4.3-5.3-2.8-8.4c1.5-3.1,5.3-4.3,8.4-2.8l28.5,14.2
		v-33.6c0-3.5,2.8-6.2,6.2-6.2s6.2,2.8,6.2,6.2v33.6l28.5-14.2c3.1-1.5,6.8-0.3,8.4,2.8c1.5,3.1,0.3,6.8-2.8,8.4L146.7,261.8z
		 M150,135.1v33.6c0,3.5-2.8,6.2-6.2,6.2s-6.2-2.8-6.2-6.2v-33.6l-34-17c-3.1-1.5-4.3-5.3-2.8-8.4c1.5-3.1,5.3-4.3,8.4-2.8
		l34.7,17.4l34.7-17.4c3.1-1.5,6.8-0.3,8.4,2.8c1.5,3.1,0.3,6.8-2.8,8.4L150,135.1z"/>
</g>
</svg>
