<?xml version="1.0" encoding="utf-8"?>
<!-- Generator: Adobe Illustrator 25.0.0, SVG Export Plug-In . SVG Version: 6.00 Build 0)  -->
<svg version="1.1" id="Layer_1" xmlns="http://www.w3.org/2000/svg" xmlns:xlink="http://www.w3.org/1999/xlink" x="0px" y="0px"
	 viewBox="0 0 300 300" enable-background="new 0 0 300 300" xml:space="preserve">
<g>
	<path fill-rule="evenodd" clip-rule="evenodd" fill="#FFFFFF" d="M223.2,142.6c-0.1-1.6-0.1-2.1-0.2-4.2l-0.1-2.4
		c0,0.3-0.1-2-0.1-1.8l-0.1-0.8l-15.2,1v0c0.1,0.9,0.1,1.7,0.2,2.6c0,0,0.3,9.1,0.3,9.1l0,0.3l0-0.1l0,0.4v0.3V147v0.4v-0.1v0.4
		v-0.1l0,0.4l0-0.1l0,0.5v-0.1v0.6v-0.1v0.8v-0.1v0.8c0,11.6-0.8,23.6-2.7,35.6c5.5-1.6,11-3.4,16.1-5.6c1.2-10,1.8-20.1,1.8-30.1
		c0-1.6,0-3.2-0.1-4.8L223.2,142.6L223.2,142.6z M67.3,208.4L25,196.1l8.2-8.9C22.7,177.4,15,164.8,15,150
		c0.1-11.5,4.4-21.1,11.4-30c10.4-12.6,25.2-22,41.7-28.7c-1.5,6-2.7,12.2-3.6,18.3c-7.2,3.6-13.9,7.9-19.6,13
		c-7,6.3-12.9,14-14.4,23.3c-1,6.2,0.3,12.2,3.2,17.7c2.5,4.7,6,8.9,9.8,12.4l8.2-8.9L67.3,208.4L67.3,208.4z M120,78.5
		c10.5-1.3,20.7-1.8,30-1.8c22.1,0,44.4,2.8,65.6,9c29,8.6,69.2,29.2,69.4,64.3c-0.1,11.4-4.4,21.1-11.4,30
		c-26.9,32.8-83.6,43.3-123.6,43.3c-11.1,0-22.8-0.7-33.7-2.3l2.1-15.1c10.2,1.5,21.2,2.1,31.7,2.1c33.9,0,78.7-7.8,105.1-30.8
		c8.1-7.1,14.6-16.2,14.7-27.3c-0.2-18.2-17.6-31.4-32.2-39.2c-26.1-13.7-58.5-18.9-87.6-18.9c-11.1,0-23.3,0.8-35.7,2.7
		C115.9,89.1,117.8,83.7,120,78.5L120,78.5z M190.3,235.4c6.1-0.9,12.2-2.1,18.2-3.5c-10.6,25.8-29.7,52.9-58.5,53.1
		c-11.5-0.1-21.1-4.4-30-11.4C87.2,246.7,76.7,190.1,76.7,150c0-22.1,2.8-44.4,9-65.6c8.6-29,29.2-69.2,64.3-69.4
		c18.2,0,32.8,11.6,43.3,25.5l9.7-7.2l7.6,43.4l-39.3-19.9l9.7-7.2c-7.3-9.8-18.3-19.3-31.1-19.3c-18.2,0.2-31.4,17.6-39.2,32.2
		C97.2,88.5,91.9,120.8,91.9,150c0,33.9,7.8,78.7,30.8,105.1c7.2,8,16.2,14.6,27.3,14.7c18.2-0.2,31.4-17.6,39.2-32.2L190.3,235.4z"
		/>
</g>
</svg>
