<?xml version="1.0" encoding="utf-8"?>
<!-- Generator: Adobe Illustrator 25.0.0, SVG Export Plug-In . SVG Version: 6.00 Build 0)  -->
<svg version="1.1" id="Layer_1" xmlns="http://www.w3.org/2000/svg" xmlns:xlink="http://www.w3.org/1999/xlink" x="0px" y="0px"
	 viewBox="0 0 300 300" enable-background="new 0 0 300 300" xml:space="preserve">
<path fill="#666666" d="M285,254.3l-26.1-30.5l-0.7,11.9l-28.5-14.2V121.2v-0.1c0-0.1,0-0.2,0-0.3c0-0.1,0-0.2,0-0.3
	c0-0.1,0-0.2-0.1-0.3c0-0.1,0-0.2-0.1-0.3c0-0.1-0.1-0.2-0.1-0.3c0-0.1-0.1-0.2-0.1-0.3c0,0,0-0.1-0.1-0.1c0,0,0-0.1-0.1-0.1
	c0-0.1-0.1-0.2-0.2-0.3c-0.1-0.1-0.1-0.2-0.2-0.3c-0.1-0.1-0.1-0.1-0.2-0.2c-0.1-0.1-0.1-0.1-0.2-0.2c-0.1-0.1-0.2-0.2-0.2-0.2
	c-0.1-0.1-0.1-0.1-0.2-0.2c-0.1-0.1-0.1-0.1-0.2-0.2c-0.1-0.1-0.2-0.1-0.3-0.2s-0.2-0.1-0.3-0.2c0,0-0.1,0-0.1-0.1l-72.4-36.2V53.4
	l10.9,4.6L150,21l-15.6,37l10.9-4.6v27.4L72.9,117c0,0-0.1,0-0.1,0.1c-0.1,0.1-0.2,0.1-0.3,0.2c-0.1,0.1-0.2,0.1-0.3,0.2
	c-0.1,0.1-0.1,0.1-0.2,0.2s-0.1,0.1-0.2,0.2s-0.2,0.2-0.2,0.2c-0.1,0.1-0.1,0.1-0.2,0.2s-0.1,0.1-0.2,0.2s-0.1,0.2-0.2,0.3
	c-0.1,0.1-0.1,0.2-0.2,0.3c0,0,0,0.1-0.1,0.1v0.1c0,0.1-0.1,0.2-0.1,0.3c0,0.1-0.1,0.2-0.1,0.3c0,0.1-0.1,0.2-0.1,0.3
	c0,0.1,0,0.2-0.1,0.3c0,0.1,0,0.2,0,0.3c0,0.1,0,0.2,0,0.3v0.1v100.2l-28.5,14.2l-0.7-11.9L15,254.3l40.1-2.6l-9-7.7l29-14.5
	l72.9,36.4c0.1,0,0.1,0.1,0.2,0.1c0.1,0,0.1,0,0.2,0.1c0.2,0.1,0.5,0.2,0.8,0.2h0.1c0.3,0.1,0.6,0.1,0.9,0.1s0.6,0,0.9-0.1h0.1
	c0.3-0.1,0.5-0.1,0.8-0.2c0.1,0,0.1,0,0.2-0.1c0.1,0,0.1,0,0.2-0.1l72.9-36.4l29,14.5l-9,7.7L285,254.3z M154.7,161.6l65.6-32.8
	v87.9l-65.6-32.8L154.7,161.6L154.7,161.6z M214.5,121.2l-59.8,29.9V91.3L214.5,121.2z M145.3,151.1l-59.8-29.9l59.8-29.9V151.1z
	 M79.7,128.7l65.6,32.8v22.3l-65.6,32.8C79.7,216.6,79.7,128.7,79.7,128.7z M145.3,194.4v59.8l-59.8-29.9L145.3,194.4z M154.7,254.2
	v-59.8l59.8,29.9L154.7,254.2z"/>
</svg>
