<?xml version="1.0" encoding="utf-8"?>
<!-- Generator: Adobe Illustrator 25.0.0, SVG Export Plug-In . SVG Version: 6.00 Build 0)  -->
<svg version="1.1" id="Layer_1" xmlns="http://www.w3.org/2000/svg" xmlns:xlink="http://www.w3.org/1999/xlink" x="0px" y="0px"
	 viewBox="0 0 300 300" enable-background="new 0 0 300 300" xml:space="preserve">
<g>
	<path fill-rule="evenodd" clip-rule="evenodd" fill="#808080" d="M214.5,143.5c-0.1-1.4-0.1-1.9-0.2-3.7l-0.1-2.1
		c0,0.3-0.1-1.8-0.1-1.6l-0.1-0.7l-13.4,0.9l0,0c0.1,0.8,0.1,1.5,0.2,2.3l0.3,8v0.3v-0.1v0.4v0.3l0,0v0.4v-0.1v0.4v-0.1v0.4v-0.1
		v0.4v-0.1v0.5v-0.1v0.7v-0.1v0.7c0,10.2-0.7,20.8-2.4,31.4c4.8-1.4,9.7-3,14.2-4.9c1.1-8.8,1.6-17.7,1.6-26.5c0-1.4,0-2.8-0.1-4.2
		L214.5,143.5L214.5,143.5z M77.1,201.5l-37.3-10.8l7.2-7.8c-9.3-8.6-16-19.7-16-32.8c0.1-10.1,3.9-18.6,10-26.4
		c9.2-11.1,22.2-19.4,36.8-25.3c-1.3,5.3-2.4,10.8-3.2,16.1c-6.3,3.2-12.3,7-17.3,11.5c-6.2,5.6-11.4,12.3-12.7,20.5
		c-0.9,5.5,0.3,10.8,2.8,15.6c2.2,4.1,5.3,7.8,8.6,10.9l7.2-7.8L77.1,201.5L77.1,201.5z M123.6,87c9.3-1.1,18.2-1.6,26.4-1.6
		c19.5,0,39.1,2.5,57.8,7.9c25.6,7.6,61,25.7,61.2,56.7c-0.1,10-3.9,18.6-10,26.4c-23.7,28.9-73.7,38.2-109,38.2
		c-9.8,0-20.1-0.6-29.7-2l1.9-13.3c9,1.3,18.7,1.9,27.9,1.9c29.9,0,69.4-6.9,92.6-27.1c7.1-6.3,12.9-14.3,13-24.1
		c-0.2-16-15.5-27.7-28.4-34.6c-23-12.1-51.6-16.7-77.2-16.7c-9.8,0-20.5,0.7-31.5,2.4C119.9,96.3,121.6,91.6,123.6,87L123.6,87z
		 M185.5,225.3c5.4-0.8,10.8-1.9,16-3.1c-9.3,22.7-26.2,46.6-51.6,46.8c-10.1-0.1-18.6-3.9-26.4-10c-28.9-23.7-38.2-73.6-38.2-109
		c0-19.5,2.5-39.1,7.9-57.8c7.6-25.6,25.7-61,56.7-61.2c16,0,28.9,10.2,38.2,22.5l8.6-6.3l6.7,38.3l-34.6-17.5l8.6-6.3
		c-6.4-8.6-16.1-17-27.4-17c-16,0.2-27.7,15.5-34.6,28.4c-11.9,22.9-16.6,51.4-16.6,77.1c0,29.9,6.9,69.4,27.1,92.6
		c6.3,7.1,14.3,12.9,24.1,13c16-0.2,27.7-15.5,34.6-28.4L185.5,225.3z"/>
</g>
</svg>
