{
    "asset" : {
        "generator" : "Khronos glTF Blender I/O v1.3.48",
        "version" : "2.0"
    },
    "scene" : 0,
    "scenes" : [
        {
            "name" : "Scene",
            "nodes" : [
                0,
                1,
                2,
                3,
                4,
                5,
                6,
                7,
                8,
                9,
                10
            ]
        }
    ],
    "nodes" : [
        {
            "name" : "Light",
            "rotation" : [
                0.16907575726509094,
                0.7558803558349609,
                -0.27217137813568115,
                0.570947527885437
            ],
            "translation" : [
                4.076245307922363,
                5.903861999511719,
                -1.0054539442062378
            ]
        },
        {
            "name" : "Camera",
            "rotation" : [
                0.483536034822464,
                0.33687159419059753,
                -0.20870360732078552,
                0.7804827094078064
            ],
            "translation" : [
                7.358891487121582,
                4.958309173583984,
                6.925790786743164
            ]
        },
        {
            "mesh" : 0,
            "name" : "Cube",
            "rotation" : [
                0.7071068286895752,
                0,
                0,
                0.7071068286895752
            ]
        },
        {
            "mesh" : 1,
            "name" : "Staples Vertical",
            "rotation" : [
                0.7071068286895752,
                0,
                0,
                0.7071068286895752
            ],
            "scale" : [
                0.0025399229489266872,
                0.02844529040157795,
                0.01521086785942316
            ],
            "translation" : [
                0.6240000128746033,
                -0.30000001192092896,
                -0.03399999439716339
            ]
        },
        {
            "mesh" : 2,
            "name" : "Staples Horizontal",
            "rotation" : [
                0.5000000596046448,
                0.5,
                0.5,
                0.5000001192092896
            ],
            "scale" : [
                0.0025399229489266872,
                0.02844529040157795,
                0.01521086785942316
            ],
            "translation" : [
                0.44999998807907104,
                0.46000000834465027,
                -0.034000106155872345
            ]
        },
        {
            "mesh" : 3,
            "name" : "Staples.002",
            "rotation" : [
                0.6532814502716064,
                0.27059802412986755,
                0.27059802412986755,
                0.6532815098762512
            ],
            "scale" : [
                0.0025399229489266872,
                0.02844529040157795,
                0.01521086785942316
            ],
            "translation" : [
                0.6149081587791443,
                0.45063650608062744,
                -0.034000106155872345
            ]
        },
        {
            "mesh" : 4,
            "name" : "Staples.003",
            "rotation" : [
                0.6532814502716064,
                0.27059802412986755,
                0.27059802412986755,
                0.6532815098762512
            ],
            "scale" : [
                0.0025399229489266872,
                0.02844529040157795,
                0.01521086785942316
            ],
            "translation" : [
                -0.6234167218208313,
                -0.448261022567749,
                -0.033999986946582794
            ]
        },
        {
            "mesh" : 5,
            "name" : "Staples.004",
            "rotation" : [
                0.27059808373451233,
                0.6532813906669617,
                0.6532815098762512,
                0.2705981731414795
            ],
            "scale" : [
                0.0025399229489266872,
                0.02844529040157795,
                0.01521086785942316
            ],
            "translation" : [
                0.6102263927459717,
                -0.4435792565345764,
                -0.033999986946582794
            ]
        },
        {
            "mesh" : 6,
            "name" : "Staples.005",
            "rotation" : [
                0.27059808373451233,
                0.6532813906669617,
                0.6532815098762512,
                0.2705981731414795
            ],
            "scale" : [
                0.0025399229489266872,
                0.02844529040157795,
                0.01521086785942316
            ],
            "translation" : [
                -0.6117123365402222,
                0.45063644647598267,
                -0.034000106155872345
            ]
        },
        {
            "mesh" : 7,
            "name" : "Staples Vertical.001",
            "rotation" : [
                0.7071068286895752,
                0,
                0,
                0.7071068286895752
            ],
            "scale" : [
                0.0025399229489266872,
                0.02844529040157795,
                0.01521086785942316
            ],
            "translation" : [
                0.6240000128746033,
                -0.30000001192092896,
                -0.03399999439716339
            ]
        },
        {
            "mesh" : 8,
            "name" : "Staples Horizontal.001",
            "rotation" : [
                0.5000000596046448,
                0.5,
                0.5,
                0.5000001192092896
            ],
            "scale" : [
                0.0025399229489266872,
                0.02844529040157795,
                0.01521086785942316
            ],
            "translation" : [
                0.44999998807907104,
                0.46000000834465027,
                -0.034000106155872345
            ]
        }
    ],
    "materials" : [
        {
            "doubleSided" : true,
            "emissiveFactor" : [
                0,
                0,
                0
            ],
            "name" : "Canvas",
            "pbrMetallicRoughness" : {
                "baseColorTexture" : {
                    "index" : 0,
                    "texCoord" : 0
                },
                "metallicFactor" : 0,
                "roughnessFactor" : 0.75
            }
        },
        {
            "doubleSided" : true,
            "emissiveFactor" : [
                0,
                0,
                0
            ],
            "name" : "Staples",
            "pbrMetallicRoughness" : {
                "baseColorFactor" : [
                    0.800000011920929,
                    0.800000011920929,
                    0.800000011920929,
                    1
                ],
                "metallicFactor" : 1,
                "roughnessFactor" : 0.20000000298023224
            }
        }
    ],
    "meshes" : [
        {
            "name" : "Cube.001",
            "primitives" : [
                {
                    "attributes" : {
                        "POSITION" : 0,
                        "NORMAL" : 1,
                        "TEXCOORD_0" : 2
                    },
                    "indices" : 3,
                    "material" : 0
                }
            ]
        },
        {
            "name" : "Plane.001",
            "primitives" : [
                {
                    "attributes" : {
                        "POSITION" : 4,
                        "NORMAL" : 5,
                        "TEXCOORD_0" : 6
                    },
                    "indices" : 7,
                    "material" : 1
                }
            ]
        },
        {
            "name" : "Plane.002",
            "primitives" : [
                {
                    "attributes" : {
                        "POSITION" : 8,
                        "NORMAL" : 9,
                        "TEXCOORD_0" : 10
                    },
                    "indices" : 7,
                    "material" : 1
                }
            ]
        },
        {
            "name" : "Plane.003",
            "primitives" : [
                {
                    "attributes" : {
                        "POSITION" : 11,
                        "NORMAL" : 12,
                        "TEXCOORD_0" : 13
                    },
                    "indices" : 7,
                    "material" : 1
                }
            ]
        },
        {
            "name" : "Plane.004",
            "primitives" : [
                {
                    "attributes" : {
                        "POSITION" : 14,
                        "NORMAL" : 15,
                        "TEXCOORD_0" : 16
                    },
                    "indices" : 7,
                    "material" : 1
                }
            ]
        },
        {
            "name" : "Plane.005",
            "primitives" : [
                {
                    "attributes" : {
                        "POSITION" : 17,
                        "NORMAL" : 18,
                        "TEXCOORD_0" : 19
                    },
                    "indices" : 7,
                    "material" : 1
                }
            ]
        },
        {
            "name" : "Plane.006",
            "primitives" : [
                {
                    "attributes" : {
                        "POSITION" : 20,
                        "NORMAL" : 21,
                        "TEXCOORD_0" : 22
                    },
                    "indices" : 7,
                    "material" : 1
                }
            ]
        },
        {
            "name" : "Plane.007",
            "primitives" : [
                {
                    "attributes" : {
                        "POSITION" : 23,
                        "NORMAL" : 24,
                        "TEXCOORD_0" : 25
                    },
                    "indices" : 26,
                    "material" : 1
                }
            ]
        },
        {
            "name" : "Plane.008",
            "primitives" : [
                {
                    "attributes" : {
                        "POSITION" : 27,
                        "NORMAL" : 28,
                        "TEXCOORD_0" : 29
                    },
                    "indices" : 30,
                    "material" : 1
                }
            ]
        }
    ],
    "textures" : [
        {
            "source" : 0
        }
    ],
    "images" : [
        {
            "mimeType" : "image/jpeg",
            "name" : "canvas-motif",
            "uri" : "canvas-motif.jpg"
        }
    ],
    "accessors" : [
        {
            "bufferView" : 0,
            "componentType" : 5126,
            "count" : 6720,
            "max" : [
                0.6663481593132019,
                0.033317405730485916,
                0.49976110458374023
            ],
            "min" : [
                -0.6663481593132019,
                -0.033317409455776215,
                -0.49976110458374023
            ],
            "type" : "VEC3"
        },
        {
            "bufferView" : 1,
            "componentType" : 5126,
            "count" : 6720,
            "type" : "VEC3"
        },
        {
            "bufferView" : 2,
            "componentType" : 5126,
            "count" : 6720,
            "type" : "VEC2"
        },
        {
            "bufferView" : 3,
            "componentType" : 5123,
            "count" : 10164,
            "type" : "SCALAR"
        },
        {
            "bufferView" : 4,
            "componentType" : 5126,
            "count" : 4,
            "max" : [
                1,
                0,
                1
            ],
            "min" : [
                -1,
                0,
                -1
            ],
            "type" : "VEC3"
        },
        {
            "bufferView" : 5,
            "componentType" : 5126,
            "count" : 4,
            "type" : "VEC3"
        },
        {
            "bufferView" : 6,
            "componentType" : 5126,
            "count" : 4,
            "type" : "VEC2"
        },
        {
            "bufferView" : 7,
            "componentType" : 5123,
            "count" : 6,
            "type" : "SCALAR"
        },
        {
            "bufferView" : 8,
            "componentType" : 5126,
            "count" : 4,
            "max" : [
                1,
                0,
                1
            ],
            "min" : [
                -1,
                0,
                -1
            ],
            "type" : "VEC3"
        },
        {
            "bufferView" : 9,
            "componentType" : 5126,
            "count" : 4,
            "type" : "VEC3"
        },
        {
            "bufferView" : 10,
            "componentType" : 5126,
            "count" : 4,
            "type" : "VEC2"
        },
        {
            "bufferView" : 11,
            "componentType" : 5126,
            "count" : 4,
            "max" : [
                1,
                0,
                1
            ],
            "min" : [
                -1,
                0,
                -1
            ],
            "type" : "VEC3"
        },
        {
            "bufferView" : 12,
            "componentType" : 5126,
            "count" : 4,
            "type" : "VEC3"
        },
        {
            "bufferView" : 13,
            "componentType" : 5126,
            "count" : 4,
            "type" : "VEC2"
        },
        {
            "bufferView" : 14,
            "componentType" : 5126,
            "count" : 4,
            "max" : [
                1,
                0,
                1
            ],
            "min" : [
                -1,
                0,
                -1
            ],
            "type" : "VEC3"
        },
        {
            "bufferView" : 15,
            "componentType" : 5126,
            "count" : 4,
            "type" : "VEC3"
        },
        {
            "bufferView" : 16,
            "componentType" : 5126,
            "count" : 4,
            "type" : "VEC2"
        },
        {
            "bufferView" : 17,
            "componentType" : 5126,
            "count" : 4,
            "max" : [
                1,
                0,
                1
            ],
            "min" : [
                -1,
                0,
                -1
            ],
            "type" : "VEC3"
        },
        {
            "bufferView" : 18,
            "componentType" : 5126,
            "count" : 4,
            "type" : "VEC3"
        },
        {
            "bufferView" : 19,
            "componentType" : 5126,
            "count" : 4,
            "type" : "VEC2"
        },
        {
            "bufferView" : 20,
            "componentType" : 5126,
            "count" : 4,
            "max" : [
                1,
                0,
                1
            ],
            "min" : [
                -1,
                0,
                -1
            ],
            "type" : "VEC3"
        },
        {
            "bufferView" : 21,
            "componentType" : 5126,
            "count" : 4,
            "type" : "VEC3"
        },
        {
            "bufferView" : 22,
            "componentType" : 5126,
            "count" : 4,
            "type" : "VEC2"
        },
        {
            "bufferView" : 23,
            "componentType" : 5126,
            "count" : 40,
            "max" : [
                1,
                0,
                1
            ],
            "min" : [
                -492.3534851074219,
                -1.1920931797249068e-07,
                -41.00008010864258
            ],
            "type" : "VEC3"
        },
        {
            "bufferView" : 24,
            "componentType" : 5126,
            "count" : 40,
            "type" : "VEC3"
        },
        {
            "bufferView" : 25,
            "componentType" : 5126,
            "count" : 40,
            "type" : "VEC2"
        },
        {
            "bufferView" : 26,
            "componentType" : 5123,
            "count" : 60,
            "type" : "SCALAR"
        },
        {
            "bufferView" : 27,
            "componentType" : 5126,
            "count" : 56,
            "max" : [
                1,
                0,
                1.000009536743164
            ],
            "min" : [
                -363.2157287597656,
                -1.4322080232886947e-06,
                -61.000282287597656
            ],
            "type" : "VEC3"
        },
        {
            "bufferView" : 28,
            "componentType" : 5126,
            "count" : 56,
            "type" : "VEC3"
        },
        {
            "bufferView" : 29,
            "componentType" : 5126,
            "count" : 56,
            "type" : "VEC2"
        },
        {
            "bufferView" : 30,
            "componentType" : 5123,
            "count" : 84,
            "type" : "SCALAR"
        }
    ],
    "bufferViews" : [
        {
            "buffer" : 0,
            "byteLength" : 80640,
            "byteOffset" : 0
        },
        {
            "buffer" : 0,
            "byteLength" : 80640,
            "byteOffset" : 80640
        },
        {
            "buffer" : 0,
            "byteLength" : 53760,
            "byteOffset" : 161280
        },
        {
            "buffer" : 0,
            "byteLength" : 20328,
            "byteOffset" : 215040
        },
        {
            "buffer" : 0,
            "byteLength" : 48,
            "byteOffset" : 235368
        },
        {
            "buffer" : 0,
            "byteLength" : 48,
            "byteOffset" : 235416
        },
        {
            "buffer" : 0,
            "byteLength" : 32,
            "byteOffset" : 235464
        },
        {
            "buffer" : 0,
            "byteLength" : 12,
            "byteOffset" : 235496
        },
        {
            "buffer" : 0,
            "byteLength" : 48,
            "byteOffset" : 235508
        },
        {
            "buffer" : 0,
            "byteLength" : 48,
            "byteOffset" : 235556
        },
        {
            "buffer" : 0,
            "byteLength" : 32,
            "byteOffset" : 235604
        },
        {
            "buffer" : 0,
            "byteLength" : 48,
            "byteOffset" : 235636
        },
        {
            "buffer" : 0,
            "byteLength" : 48,
            "byteOffset" : 235684
        },
        {
            "buffer" : 0,
            "byteLength" : 32,
            "byteOffset" : 235732
        },
        {
            "buffer" : 0,
            "byteLength" : 48,
            "byteOffset" : 235764
        },
        {
            "buffer" : 0,
            "byteLength" : 48,
            "byteOffset" : 235812
        },
        {
            "buffer" : 0,
            "byteLength" : 32,
            "byteOffset" : 235860
        },
        {
            "buffer" : 0,
            "byteLength" : 48,
            "byteOffset" : 235892
        },
        {
            "buffer" : 0,
            "byteLength" : 48,
            "byteOffset" : 235940
        },
        {
            "buffer" : 0,
            "byteLength" : 32,
            "byteOffset" : 235988
        },
        {
            "buffer" : 0,
            "byteLength" : 48,
            "byteOffset" : 236020
        },
        {
            "buffer" : 0,
            "byteLength" : 48,
            "byteOffset" : 236068
        },
        {
            "buffer" : 0,
            "byteLength" : 32,
            "byteOffset" : 236116
        },
        {
            "buffer" : 0,
            "byteLength" : 480,
            "byteOffset" : 236148
        },
        {
            "buffer" : 0,
            "byteLength" : 480,
            "byteOffset" : 236628
        },
        {
            "buffer" : 0,
            "byteLength" : 320,
            "byteOffset" : 237108
        },
        {
            "buffer" : 0,
            "byteLength" : 120,
            "byteOffset" : 237428
        },
        {
            "buffer" : 0,
            "byteLength" : 672,
            "byteOffset" : 237548
        },
        {
            "buffer" : 0,
            "byteLength" : 672,
            "byteOffset" : 238220
        },
        {
            "buffer" : 0,
            "byteLength" : 448,
            "byteOffset" : 238892
        },
        {
            "buffer" : 0,
            "byteLength" : 168,
            "byteOffset" : 239340
        }
    ],
    "buffers" : [
        {
            "byteLength" : 239508,
            "uri" : "canvas.bin"
        }
    ]
}
