{
    "asset" : {
        "generator" : "Khronos glTF Blender I/O v1.4.40",
        "version" : "2.0"
    },
    "scene" : 0,
    "scenes" : [
        {
            "name" : "Scene",
            "nodes" : [
                0
            ]
        }
    ],
    "nodes" : [
        {
            "mesh" : 0,
            "name" : "Mug Front-View",
            "rotation" : [
                0,
                0.9999985694885254,
                0,
                0.0017452988540753722
            ]
        }
    ],
    "materials" : [
        {
            "doubleSided" : true,
            "name" : "Ceramic",
            "pbrMetallicRoughness" : {
                "baseColorTexture" : {
                    "index" : 0,
                    "texCoord" : 0
                },
                "metallicFactor" : 0,
                "roughnessFactor" : 0
            }
        }
    ],
    "meshes" : [
        {
            "name" : "Cylinder",
            "primitives" : [
                {
                    "attributes" : {
                        "POSITION" : 0,
                        "NORMAL" : 1,
                        "TEXCOORD_0" : 2
                    },
                    "indices" : 3,
                    "material" : 0
                }
            ]
        }
    ],
    "textures" : [
        {
            "sampler" : 0,
            "source" : 0
        }
    ],
    "images" : [
        {
            "mimeType" : "image/jpeg",
            "name" : "motif-mug",
            "uri" : "https://picsum.photos/628/237"
        }
    ],
    "accessors" : [
        {
            "bufferView" : 0,
            "componentType" : 5126,
            "count" : 5693,
            "max" : [
                0.6620951294898987,
                0.5988361835479736,
                0.450214147567749
            ],
            "min" : [
                -0.6916314363479614,
                -0.4699608087539673,
                -0.44981858134269714
            ],
            "type" : "VEC3"
        },
        {
            "bufferView" : 1,
            "componentType" : 5126,
            "count" : 5693,
            "type" : "VEC3"
        },
        {
            "bufferView" : 2,
            "componentType" : 5126,
            "count" : 5693,
            "type" : "VEC2"
        },
        {
            "bufferView" : 3,
            "componentType" : 5123,
            "count" : 28992,
            "type" : "SCALAR"
        }
    ],
    "bufferViews" : [
        {
            "buffer" : 0,
            "byteLength" : 68316,
            "byteOffset" : 0
        },
        {
            "buffer" : 0,
            "byteLength" : 68316,
            "byteOffset" : 68316
        },
        {
            "buffer" : 0,
            "byteLength" : 45544,
            "byteOffset" : 136632
        },
        {
            "buffer" : 0,
            "byteLength" : 57984,
            "byteOffset" : 182176
        }
    ],
    "samplers" : [
        {
            "magFilter" : 9729,
            "minFilter" : 9986
        }
    ],
    "buffers" : [
        {
            "byteLength" : 240160,
            "uri" : "mug.bin"
        }
    ]
}
