{
    "asset" : {
        "generator" : "Khronos glTF Blender I/O v1.4.40",
        "version" : "2.0"
    },
    "scene" : 0,
    "scenes" : [
        {
            "name" : "Scene",
            "nodes" : [
                0,
                1
            ]
        }
    ],
    "nodes" : [
        {
            "mesh" : 0,
            "name" : "Front",
            "rotation" : [
                -0.5,
                -0.5,
                0.4999999701976776,
                0.5
            ],
            "scale" : [
                1.2560515403747559,
                1.2560515403747559,
                1.2560515403747559
            ],
            "translation" : [
                0,
                0.054999999701976776,
                0
            ]
        },
        {
            "mesh" : 1,
            "name" : "Back",
            "rotation" : [
                -0.5,
                -0.5,
                0.4999999701976776,
                0.5
            ],
            "scale" : [
                1.2560515403747559,
                1.2560515403747559,
                1.2560515403747559
            ],
            "translation" : [
                0,
                0.054999999701976776,
                0
            ]
        }
    ],
    "materials" : [
        {
            "doubleSided" : true,
            "name" : "Front",
            "pbrMetallicRoughness" : {
                "baseColorTexture" : {
                    "index" : 0,
                    "texCoord" : 0
                },
                "metallicFactor" : 0
            }
        },
        {
            "doubleSided" : true,
            "name" : "Back",
            "pbrMetallicRoughness" : {
                "baseColorFactor" : [
                    0.800000011920929,
                    0.800000011920929,
                    0.800000011920929,
                    1
                ],
                "metallicFactor" : 0
            }
        }
    ],
    "meshes" : [
        {
            "name" : "Cube.001",
            "primitives" : [
                {
                    "attributes" : {
                        "POSITION" : 0,
                        "NORMAL" : 1,
                        "TEXCOORD_0" : 2
                    },
                    "indices" : 3,
                    "material" : 0
                }
            ]
        },
        {
            "name" : "Cube.002",
            "primitives" : [
                {
                    "attributes" : {
                        "POSITION" : 4,
                        "NORMAL" : 5,
                        "TEXCOORD_0" : 6
                    },
                    "indices" : 7,
                    "material" : 1
                }
            ]
        }
    ],
    "textures" : [
        {
            "sampler" : 0,
            "source" : 0
        }
    ],
    "images" : [
        {
            "mimeType" : "image/jpeg",
            "name" : "motif-cushion",
            "uri" : "https://picsum.photos/600"
        }
    ],
    "accessors" : [
        {
            "bufferView" : 0,
            "componentType" : 5126,
            "count" : 8905,
            "max" : [
                0.5989768505096436,
                0.011574850417673588,
                0.6006496548652649
            ],
            "min" : [
                -0.598497748374939,
                -0.223168283700943,
                -0.6003276705741882
            ],
            "type" : "VEC3"
        },
        {
            "bufferView" : 1,
            "componentType" : 5126,
            "count" : 8905,
            "type" : "VEC3"
        },
        {
            "bufferView" : 2,
            "componentType" : 5126,
            "count" : 8905,
            "type" : "VEC2"
        },
        {
            "bufferView" : 3,
            "componentType" : 5123,
            "count" : 52416,
            "type" : "SCALAR"
        },
        {
            "bufferView" : 4,
            "componentType" : 5126,
            "count" : 8243,
            "max" : [
                0.5984573364257812,
                0.22286787629127502,
                0.5999060869216919
            ],
            "min" : [
                -0.5980640649795532,
                -0.007844889536499977,
                -0.6003276705741882
            ],
            "type" : "VEC3"
        },
        {
            "bufferView" : 5,
            "componentType" : 5126,
            "count" : 8243,
            "type" : "VEC3"
        },
        {
            "bufferView" : 6,
            "componentType" : 5126,
            "count" : 8243,
            "type" : "VEC2"
        },
        {
            "bufferView" : 7,
            "componentType" : 5123,
            "count" : 48408,
            "type" : "SCALAR"
        }
    ],
    "bufferViews" : [
        {
            "buffer" : 0,
            "byteLength" : 106860,
            "byteOffset" : 0
        },
        {
            "buffer" : 0,
            "byteLength" : 106860,
            "byteOffset" : 106860
        },
        {
            "buffer" : 0,
            "byteLength" : 71240,
            "byteOffset" : 213720
        },
        {
            "buffer" : 0,
            "byteLength" : 104832,
            "byteOffset" : 284960
        },
        {
            "buffer" : 0,
            "byteLength" : 98916,
            "byteOffset" : 389792
        },
        {
            "buffer" : 0,
            "byteLength" : 98916,
            "byteOffset" : 488708
        },
        {
            "buffer" : 0,
            "byteLength" : 65944,
            "byteOffset" : 587624
        },
        {
            "buffer" : 0,
            "byteLength" : 96816,
            "byteOffset" : 653568
        }
    ],
    "samplers" : [
        {
            "magFilter" : 9729,
            "minFilter" : 9986
        }
    ],
    "buffers" : [
        {
            "byteLength" : 750384,
            "uri" : "cushion.bin"
        }
    ]
}
